<svg width="57" height="56" viewBox="0 0 57 56" fill="none" xmlns="http://www.w3.org/2000/svg">
    <path fill-rule="evenodd" clip-rule="evenodd" d="M10.0301 48.6534L8.51113 8.2039C8.46329 6.86807 9.48996 5.73757 10.8235 5.6559L37.7828 3.97007L39.842 4.66657L42.5195 3.67373L45.2215 3.50457C46.5783 3.41823 47.7485 4.4484 47.836 5.80523C47.8395 5.85773 47.8406 5.9114 47.8406 5.96507V50.0382C47.8395 51.3997 46.7346 52.5022 45.3731 52.5011C45.337 52.5011 45.3008 52.4999 45.2658 52.4987L12.3821 51.0217C11.1011 50.9646 10.0791 49.9356 10.0301 48.6534Z" fill="black"/>
    <path fill-rule="evenodd" clip-rule="evenodd" d="M42.5172 3.67383L37.7841 3.96783L37.5542 9.52233C37.5461 9.72533 37.7036 9.89566 37.9066 9.90499C37.9917 9.90849 38.0746 9.88283 38.1422 9.83149L40.2982 8.19466L42.1206 9.63083C42.2792 9.75683 42.5114 9.72999 42.6362 9.57133C42.6899 9.50249 42.7179 9.41733 42.7156 9.32983L42.5196 3.67499L42.5172 3.67383ZM38.8329 22.2693C37.9684 22.9425 31.5097 23.401 31.5097 22.4432C31.6474 18.7857 30.0106 18.6258 29.0994 18.6258C28.2372 18.6258 26.7812 18.886 26.7812 20.846C26.7812 22.8422 28.9081 23.9692 31.4047 25.2922C34.9502 27.1717 39.2447 29.4478 39.2447 35.1703C39.2447 40.6583 34.7857 43.687 29.1017 43.687C23.2346 43.687 18.1059 41.3128 18.6846 33.0832C18.9121 32.1183 26.3729 32.3482 26.3729 33.0832C26.2796 36.4793 27.0542 37.478 29.0096 37.478C30.5111 37.478 31.1924 36.6497 31.1924 35.2578C31.1924 33.1485 28.9781 31.9037 26.4277 30.4733C22.9756 28.5355 18.9132 26.2547 18.9132 21.0187C18.9132 15.7955 22.5054 12.3118 28.9186 12.3118C35.3317 12.3118 38.8329 15.743 38.8329 22.2693Z" fill="white"/>
</svg>
